<svg width="809" height="464" viewBox="0 0 809 464" fill="none" xmlns="http://www.w3.org/2000/svg">
<path d="M286.99 462.805C298.316 463.352 808 462.577 808 462.577V1H1C76.3075 3.05246 63.9135 -0.327154 76.5 12C85.5 32.5 91.5 38 101.439 44.5C112.5 53.5 130.5 79 118.798 120.506C111.262 136.58 107.76 145.584 103.511 161.62C100.169 175.468 100.603 183.253 101.439 196.401C103.512 214.864 103.512 223.582 116.139 246.589C123.216 259.483 134.482 266.897 140.065 276.74C144.552 281.222 151.019 298.65 152.693 305.794C155.499 315.53 156.055 321.788 156.016 333.752C152.571 357.71 151.423 376.511 158.01 390.764C168.229 412.875 184.876 427.372 206.526 436.263L225.135 445.034L243.745 452.161L263.018 458.191C263.018 458.191 275.663 462.257 286.99 462.805Z" fill="url(#paint0_linear)"/>
<path d="M286.99 462.805C298.316 463.352 808 462.577 808 462.577V1H1C76.3075 3.05246 63.9135 -0.327154 76.5 12C85.5 32.5 91.5 38 101.439 44.5C112.5 53.5 130.5 79 118.798 120.506C111.262 136.58 107.76 145.584 103.511 161.62C100.169 175.468 100.603 183.253 101.439 196.401C103.512 214.864 103.512 223.582 116.139 246.589C123.216 259.483 134.482 266.897 140.065 276.74C144.552 281.222 151.019 298.65 152.693 305.794C155.499 315.53 156.055 321.788 156.016 333.752C152.571 357.71 151.423 376.511 158.01 390.764C168.229 412.875 184.876 427.372 206.526 436.263L225.135 445.034L243.745 452.161L263.018 458.191C263.018 458.191 275.663 462.257 286.99 462.805Z" fill="url(#paint1_linear)"/>
<path d="M286.99 462.805C298.316 463.352 808 462.577 808 462.577V1H1C76.3075 3.05246 63.9135 -0.327154 76.5 12C85.5 32.5 91.5 38 101.439 44.5C112.5 53.5 130.5 79 118.798 120.506C111.262 136.58 107.76 145.584 103.511 161.62C100.169 175.468 100.603 183.253 101.439 196.401C103.512 214.864 103.512 223.582 116.139 246.589C123.216 259.483 134.482 266.897 140.065 276.74C144.552 281.222 151.019 298.65 152.693 305.794C155.499 315.53 156.055 321.788 156.016 333.752C152.571 357.71 151.423 376.511 158.01 390.764C168.229 412.875 184.876 427.372 206.526 436.263L225.135 445.034L243.745 452.161L263.018 458.191C263.018 458.191 275.663 462.257 286.99 462.805Z" stroke="url(#paint2_linear)" stroke-width="0.1"/>
<path d="M286.99 462.805C298.316 463.352 808 462.577 808 462.577V1H1C76.3075 3.05246 63.9135 -0.327154 76.5 12C85.5 32.5 91.5 38 101.439 44.5C112.5 53.5 130.5 79 118.798 120.506C111.262 136.58 107.76 145.584 103.511 161.62C100.169 175.468 100.603 183.253 101.439 196.401C103.512 214.864 103.512 223.582 116.139 246.589C123.216 259.483 134.482 266.897 140.065 276.74C144.552 281.222 151.019 298.65 152.693 305.794C155.499 315.53 156.055 321.788 156.016 333.752C152.571 357.71 151.423 376.511 158.01 390.764C168.229 412.875 184.876 427.372 206.526 436.263L225.135 445.034L243.745 452.161L263.018 458.191C263.018 458.191 275.663 462.257 286.99 462.805Z" stroke="url(#paint3_linear)" stroke-width="0.1"/>
<defs>
<linearGradient id="paint0_linear" x1="378.144" y1="-26" x2="378.144" y2="435.804" gradientUnits="userSpaceOnUse">
<stop stop-color="#C300FF"/>
<stop offset="1" stop-color="#C4C4C4" stop-opacity="0"/>
</linearGradient>
<linearGradient id="paint1_linear" x1="378.144" y1="-26" x2="378.144" y2="435.804" gradientUnits="userSpaceOnUse">
<stop stop-color="white" stop-opacity="0"/>
<stop offset="1" stop-color="#FF3992" stop-opacity="0.32"/>
</linearGradient>
<linearGradient id="paint2_linear" x1="378.5" y1="-26" x2="378.5" y2="436" gradientUnits="userSpaceOnUse">
<stop stop-color="#C300FF"/>
<stop offset="1" stop-color="white" stop-opacity="0"/>
</linearGradient>
<linearGradient id="paint3_linear" x1="378.5" y1="-26" x2="378.5" y2="436" gradientUnits="userSpaceOnUse">
<stop stop-color="white" stop-opacity="0"/>
<stop offset="1" stop-color="#FF3992" stop-opacity="0.32"/>
</linearGradient>
</defs>
</svg>
